<?xml version="1.0" encoding="UTF-8" standalone="no"?>
<svg
   xmlns:dc="http://purl.org/dc/elements/1.1/"
   xmlns:cc="http://creativecommons.org/ns#"
   xmlns:rdf="http://www.w3.org/1999/02/22-rdf-syntax-ns#"
   xmlns:svg="http://www.w3.org/2000/svg"
   xmlns="http://www.w3.org/2000/svg"
   xmlns:sodipodi="http://sodipodi.sourceforge.net/DTD/sodipodi-0.dtd"
   xmlns:inkscape="http://www.inkscape.org/namespaces/inkscape"
   viewBox="0 0 720 720"
   version="1.1"
   id="svg4"
   sodipodi:docname="favicon.svg"
   width="720"
   height="720"
   inkscape:version="0.92.2 5c3e80d, 2017-08-06"
   inkscape:export-filename="/Users/hayden/Documents/cyberatuc.org/_assets/img/favicon.png"
   inkscape:export-xdpi="96"
   inkscape:export-ydpi="96">
  <metadata
     id="metadata10">
    <rdf:RDF>
      <cc:Work
         rdf:about="">
        <dc:format>image/svg+xml</dc:format>
        <dc:type
           rdf:resource="http://purl.org/dc/dcmitype/StillImage" />
        <dc:title></dc:title>
      </cc:Work>
    </rdf:RDF>
  </metadata>
  <defs
     id="defs8" />
  <sodipodi:namedview
     pagecolor="#ffffff"
     bordercolor="#666666"
     borderopacity="1"
     objecttolerance="10"
     gridtolerance="10"
     guidetolerance="10"
     inkscape:pageopacity="0"
     inkscape:pageshadow="2"
     inkscape:window-width="1530"
     inkscape:window-height="933"
     id="namedview6"
     showgrid="false"
     showguides="false"
     inkscape:zoom="0.66529846"
     inkscape:cx="304.96915"
     inkscape:cy="466.43187"
     inkscape:window-x="0"
     inkscape:window-y="0"
     inkscape:window-maximized="0"
     inkscape:current-layer="svg4" />
  <rect
     style="fill:#e00122;fill-opacity:1"
     id="rect7633"
     width="720"
     height="720"
     x="0"
     y="0"
     rx="128"
     ry="128" />
  <path
     d="m 297.98126,374.14238 -194.343,194.34299 c -9.373002,9.37301 -24.569002,9.37301 -33.941002,0 l -22.668,-22.667 c -9.357,-9.357 -9.375,-24.522 -0.04,-33.901 L 201.01126,357.17137 46.990258,202.42637 c -9.335,-9.379 -9.317,-24.54399 0.04,-33.901 l 22.667,-22.667 c 9.373,-9.373 24.569,-9.373 33.941002,0 l 194.343,194.343 c 9.373,9.372 9.373,24.568 0,33.94101 z m 382.019,183.02899 v -32 c 0,-13.25499 -10.745,-24 -24,-24 h -304 c -13.255,0 -24,10.74501 -24,24 v 32 c 0,13.255 10.745,24 24,24 h 304 c 13.255,0 24,-10.745 24,-24 z"
     id="path2"
     inkscape:connector-curvature="0"
     style="fill:#ffffff" />
</svg>
